<?xml version="1.0" encoding="UTF-8"?>
<!DOCTYPE svg PUBLIC "-//W3C//DTD SVG 1.1//EN" "http://www.w3.org/Graphics/SVG/1.1/DTD/svg11.dtd">
<svg xmlns="http://www.w3.org/2000/svg" xmlns:xlink="http://www.w3.org/1999/xlink" version="1.1" width="539px" height="539px" style="shape-rendering:geometricPrecision; text-rendering:geometricPrecision; image-rendering:optimizeQuality; fill-rule:evenodd; clip-rule:evenodd;background-color:transparent;">
  <g>
    <path style="opacity:1" fill="#fefefe" d="M -0.5,-0.5 C 179.167,-0.5 358.833,-0.5 538.5,-0.5C 538.5,179.167 538.5,358.833 538.5,538.5C 450.833,538.5 363.167,538.5 275.5,538.5C 276.463,537.637 276.463,536.97 275.5,536.5C 274.702,536.957 274.369,537.624 274.5,538.5C 182.833,538.5 91.1667,538.5 -0.5,538.5C -0.5,358.833 -0.5,179.167 -0.5,-0.5 Z"/>
  </g>
  <g>
    <path style="opacity:1" fill="#02518d" d="M 319.5,18.5 C 389.898,40.401 433.064,87.401 449,159.5C 452.643,183.934 452.143,208.268 447.5,232.5C 444.088,244.559 439.755,256.392 434.5,268C 438.458,270.234 441.958,273.067 445,276.5C 447.681,284.652 445.181,290.819 437.5,295C 421.912,302.529 405.579,307.863 388.5,311C 364.348,315.394 340.015,318.227 315.5,319.5C 271.371,321.819 227.371,320.485 183.5,315.5C 159.077,313.191 135.411,307.691 112.5,299C 106.248,296.131 101.081,291.964 97,286.5C 95.3284,280.342 97.1617,275.509 102.5,272C 104.5,270.667 106.5,269.333 108.5,268C 104.116,258.665 100.449,249.165 97.5,239.5C 96.2845,233.54 95.2845,227.54 94.5,221.5C 92.487,196.984 93.487,172.651 97.5,148.5C 105.001,115.341 121.001,86.8407 145.5,63C 158.331,49.7509 173.331,39.7509 190.5,33C 191.833,31.6667 193.167,30.3333 194.5,29C 207.735,22.1996 221.735,17.6996 236.5,15.5C 254.79,13.6864 273.123,13.1864 291.5,14C 297.291,14.6547 302.791,16.1547 308,18.5C 311.808,17.5709 315.641,17.5709 319.5,18.5 Z"/>
  </g>
  <g>
    <path style="opacity:1" fill="#225584" d="M 319.5,18.5 C 315.641,17.5709 311.808,17.5709 308,18.5C 302.791,16.1547 297.291,14.6547 291.5,14C 273.123,13.1864 254.79,13.6864 236.5,15.5C 246.846,12.7067 257.513,11.3733 268.5,11.5C 285.994,11.4763 302.994,13.8096 319.5,18.5 Z"/>
  </g>
  <g>
    <path style="opacity:1" fill="#02518d" d="M 231.5,113.5 C 267.228,112.966 302.895,113.966 338.5,116.5C 342.53,116.799 346.363,117.799 350,119.5C 353.956,128.56 357.789,137.56 361.5,146.5C 363.174,151.844 364.841,157.177 366.5,162.5C 359.511,163.276 352.511,163.943 345.5,164.5C 304.887,167.693 264.22,168.36 223.5,166.5C 207.593,165.761 191.926,164.094 176.5,161.5C 181.185,146.96 186.852,132.793 193.5,119C 205.832,115.041 218.498,113.208 231.5,113.5 Z"/>
  </g>
  <g>
    <path style="opacity:1" fill="#e5f6fa" d="M 338.5,111.5 C 343.477,112.474 348.31,114.141 353,116.5C 357.858,126.577 362.024,136.911 365.5,147.5C 364.292,146.766 362.959,146.433 361.5,146.5C 357.789,137.56 353.956,128.56 350,119.5C 346.363,117.799 342.53,116.799 338.5,116.5C 327.799,114.004 316.799,112.837 305.5,113C 280.663,112.17 255.997,112.337 231.5,113.5C 218.498,113.208 205.832,115.041 193.5,119C 186.852,132.793 181.185,146.96 176.5,161.5C 174,162.123 171.5,162.457 169,162.5C 168.517,161.552 168.351,160.552 168.5,159.5C 170.167,159.5 171.833,159.5 173.5,159.5C 177.91,144.772 183.41,130.438 190,116.5C 192.192,114.765 194.692,113.598 197.5,113C 206.087,111.177 214.753,109.843 223.5,109C 253.5,108.333 283.5,108.333 313.5,109C 321.866,109.588 330.2,110.421 338.5,111.5 Z"/>
  </g>
  <g>
    <path style="opacity:1" fill="#205177" d="M 231.5,113.5 C 255.997,112.337 280.663,112.17 305.5,113C 316.799,112.837 327.799,114.004 338.5,116.5C 302.895,113.966 267.228,112.966 231.5,113.5 Z"/>
  </g>
  <g>
    <path style="opacity:1" fill="#195383" d="M 338.5,111.5 C 343.968,111.161 349.135,112.161 354,114.5C 354.483,115.448 354.649,116.448 354.5,117.5C 355.93,117.421 357.264,117.754 358.5,118.5C 359.065,120.51 360.065,122.176 361.5,123.5C 361.919,127.856 362.252,132.189 362.5,136.5C 363.5,136.5 364.5,136.5 365.5,136.5C 365.337,138.857 365.503,141.19 366,143.5C 368.502,146.786 370.335,150.453 371.5,154.5C 372.086,154.291 372.586,153.957 373,153.5C 373.119,148.718 373.785,144.051 375,139.5C 377.492,137.503 380.325,136.503 383.5,136.5C 383.5,135.5 383.5,134.5 383.5,133.5C 385.857,133.337 388.19,133.503 390.5,134C 390.167,134.333 389.833,134.667 389.5,135C 395.085,136.186 400.751,136.852 406.5,137C 409.448,142.414 408.781,147.414 404.5,152C 403.207,152.49 401.873,152.657 400.5,152.5C 405.521,150.129 407.688,146.129 407,140.5C 404.347,138.059 401.18,137.059 397.5,137.5C 391.771,137.899 386.105,138.733 380.5,140C 378.714,140.785 377.214,141.951 376,143.5C 375.262,147.71 375.428,151.876 376.5,156C 374.953,158.709 372.619,159.876 369.5,159.5C 368.762,155.285 367.428,151.285 365.5,147.5C 362.024,136.911 357.858,126.577 353,116.5C 348.31,114.141 343.477,112.474 338.5,111.5 Z"/>
  </g>
  <g>
    <path style="opacity:1" fill="#f7fbfb" d="M 168.5,159.5 C 168.351,160.552 168.517,161.552 169,162.5C 171.5,162.457 174,162.123 176.5,161.5C 191.926,164.094 207.593,165.761 223.5,166.5C 255.302,169.773 287.302,170.273 319.5,168C 328.391,167.416 337.057,166.249 345.5,164.5C 352.511,163.943 359.511,163.276 366.5,162.5C 364.841,157.177 363.174,151.844 361.5,146.5C 362.959,146.433 364.292,146.766 365.5,147.5C 367.428,151.285 368.762,155.285 369.5,159.5C 372.619,159.876 374.953,158.709 376.5,156C 375.428,151.876 375.262,147.71 376,143.5C 377.214,141.951 378.714,140.785 380.5,140C 386.105,138.733 391.771,137.899 397.5,137.5C 401.18,137.059 404.347,138.059 407,140.5C 407.688,146.129 405.521,150.129 400.5,152.5C 393.081,155.376 386.081,159.043 379.5,163.5C 390.55,167.378 397.05,175.044 399,186.5C 399.667,211.167 399.667,235.833 399,260.5C 398,261.5 397,262.5 396,263.5C 395.667,270.5 395.333,277.5 395,284.5C 394.167,285.333 393.333,286.167 392.5,287C 374.833,287.667 357.167,287.667 339.5,287C 338.667,286.167 337.833,285.333 337,284.5C 336.501,280.179 336.334,275.846 336.5,271.5C 337.977,275.233 338.811,279.233 339,283.5C 340.707,284.459 342.541,285.125 344.5,285.5C 348.978,285.644 353.478,284.978 358,283.5C 368.97,284.325 379.637,284.659 390,284.5C 391.333,283.833 392.667,283.167 394,282.5C 394.333,275.5 394.667,268.5 395,261.5C 396.464,260.541 397.297,259.208 397.5,257.5C 396.844,245.66 396.177,233.826 395.5,222C 395.558,217.942 395.891,213.775 396.5,209.5C 396.603,206.963 396.103,204.629 395,202.5C 394.667,203.167 394.333,203.833 394,204.5C 392.701,204.034 391.201,204.034 389.5,204.5C 392.624,197.891 390.957,192.724 384.5,189C 373.401,187.773 362.735,189.44 352.5,194C 348.598,196.119 344.598,197.952 340.5,199.5C 337.034,199.277 336.034,200.611 337.5,203.5C 336.865,204.966 336.031,206.3 335,207.5C 334.22,201.883 331.054,199.55 325.5,200.5C 323.048,200.539 321.048,201.206 319.5,202.5C 292.883,204.333 266.216,204.999 239.5,204.5C 230.713,202.738 221.713,202.238 212.5,203C 209.617,206.629 208.617,210.629 209.5,215C 219.583,217.978 229.583,220.811 239.5,223.5C 229.849,221.788 220.182,219.955 210.5,218C 208.86,216.605 207.36,215.105 206,213.5C 204.544,216.126 202.377,217.793 199.5,218.5C 198.833,218.167 198.167,217.833 197.5,217.5C 198.648,215.851 199.981,214.351 201.5,213C 200.906,212.536 200.239,212.369 199.5,212.5C 200.496,208.677 202.163,205.177 204.5,202C 189.908,192.019 173.908,188.019 156.5,190C 149.67,196.911 150.336,203.244 158.5,209C 171.378,214.898 184.711,216.065 198.5,212.5C 198.631,213.376 198.298,214.043 197.5,214.5C 182.389,218.307 168.056,216.474 154.5,209C 152.959,206.96 151.626,204.793 150.5,202.5C 149.459,204.991 148.626,204.991 148,202.5C 147.194,196.916 147.361,191.416 148.5,186C 147.809,184.933 147.309,183.766 147,182.5C 146.459,186.662 145.959,190.828 145.5,195C 147.732,215.855 147.732,236.688 145.5,257.5C 146.135,258.966 146.969,260.3 148,261.5C 148.333,268.5 148.667,275.5 149,282.5C 150.958,283.952 152.958,284.285 155,283.5C 156.333,286.167 157.667,286.167 159,283.5C 162.667,284.167 166.333,284.833 170,285.5C 177.051,284.678 184.218,284.345 191.5,284.5C 191.281,283.325 191.614,282.325 192.5,281.5C 201.492,287.274 205.325,284.94 204,274.5C 202.734,271.669 202.734,268.669 204,265.5C 204.667,268.167 205.333,268.167 206,265.5C 207.996,267.059 210.329,267.726 213,267.5C 214.833,267.333 216.667,267.167 218.5,267C 220.424,263.528 223.09,262.695 226.5,264.5C 221.396,269.93 215.063,271.93 207.5,270.5C 207.666,274.846 207.499,279.179 207,283.5C 205.833,284.667 204.667,285.833 203.5,287C 185.833,287.667 168.167,287.667 150.5,287C 149.667,286.167 148.833,285.333 148,284.5C 147.667,277.5 147.333,270.5 147,263.5C 146,262.5 145,261.5 144,260.5C 143.333,235.5 143.333,210.5 144,185.5C 146.563,174.603 153.063,167.103 163.5,163C 155.293,158.397 146.959,154.063 138.5,150C 134.59,145.925 134.59,141.925 138.5,138C 147.351,137.356 156.018,138.356 164.5,141C 165.333,141.833 166.167,142.667 167,143.5C 167.738,147.71 167.572,151.876 166.5,156C 166.978,157.303 167.645,158.469 168.5,159.5 Z"/>
  </g>
  <g>
    <path style="opacity:1" fill="#32608b" d="M 345.5,164.5 C 337.057,166.249 328.391,167.416 319.5,168C 287.302,170.273 255.302,169.773 223.5,166.5C 264.22,168.36 304.887,167.693 345.5,164.5 Z"/>
  </g>
  <g>
    <path style="opacity:1" fill="#1e5482" d="M 97.5,148.5 C 93.487,172.651 92.487,196.984 94.5,221.5C 93.0117,215.734 92.1783,209.734 92,203.5C 90.0629,184.624 91.8962,166.291 97.5,148.5 Z"/>
  </g>
  <g>
    <path style="opacity:1" fill="#0a518b" d="M 389.5,204.5 C 386.616,208.049 382.949,210.382 378.5,211.5C 367.671,214.865 356.671,215.365 345.5,213C 344.584,212.626 343.75,212.126 343,211.5C 342.261,207.938 340.761,204.772 338.5,202C 339.381,201.292 340.047,200.458 340.5,199.5C 344.598,197.952 348.598,196.119 352.5,194C 362.735,189.44 373.401,187.773 384.5,189C 390.957,192.724 392.624,197.891 389.5,204.5 Z"/>
  </g>
  <g>
    <path style="opacity:1" fill="#fdfefd" d="M 198.5,212.5 C 198.833,212.5 199.167,212.5 199.5,212.5C 200.239,212.369 200.906,212.536 201.5,213C 199.981,214.351 198.648,215.851 197.5,217.5C 198.167,217.833 198.833,218.167 199.5,218.5C 202.377,217.793 204.544,216.126 206,213.5C 207.36,215.105 208.86,216.605 210.5,218C 220.182,219.955 229.849,221.788 239.5,223.5C 260.843,227.543 282.177,227.377 303.5,223C 311.151,221.004 318.817,219.17 326.5,217.5C 328.144,217.286 329.644,217.62 331,218.5C 332.645,216.338 334.812,215.005 337.5,214.5C 338.281,213.271 338.781,211.938 339,210.5C 339.5,212.333 340.667,213.5 342.5,214C 351.704,216.344 361.037,217.011 370.5,216C 373.633,215.14 376.3,213.64 378.5,211.5C 382.949,210.382 386.616,208.049 389.5,204.5C 391.201,204.034 392.701,204.034 394,204.5C 394.333,203.833 394.667,203.167 395,202.5C 396.103,204.629 396.603,206.963 396.5,209.5C 395.891,213.775 395.558,217.942 395.5,222C 396.177,233.826 396.844,245.66 397.5,257.5C 397.297,259.208 396.464,260.541 395,261.5C 394.667,268.5 394.333,275.5 394,282.5C 392.667,283.167 391.333,283.833 390,284.5C 379.637,284.659 368.97,284.325 358,283.5C 353.478,284.978 348.978,285.644 344.5,285.5C 342.541,285.125 340.707,284.459 339,283.5C 338.811,279.233 337.977,275.233 336.5,271.5C 332.688,270.676 328.688,270.176 324.5,270C 320.845,267.173 316.845,265.007 312.5,263.5C 312.167,262.5 311.5,261.833 310.5,261.5C 310.586,260.504 310.252,259.671 309.5,259C 283.775,259.153 258.275,258.32 233,256.5C 231.053,257.11 229.219,257.943 227.5,259C 228.833,259.333 230.167,259.667 231.5,260C 229.833,261 228.167,262 226.5,263C 227.056,263.383 227.389,263.883 227.5,264.5C 227.167,264.5 226.833,264.5 226.5,264.5C 223.09,262.695 220.424,263.528 218.5,267C 216.667,267.167 214.833,267.333 213,267.5C 210.329,267.726 207.996,267.059 206,265.5C 205.333,268.167 204.667,268.167 204,265.5C 202.734,268.669 202.734,271.669 204,274.5C 205.325,284.94 201.492,287.274 192.5,281.5C 191.614,282.325 191.281,283.325 191.5,284.5C 184.218,284.345 177.051,284.678 170,285.5C 166.333,284.833 162.667,284.167 159,283.5C 157.667,286.167 156.333,286.167 155,283.5C 152.958,284.285 150.958,283.952 149,282.5C 148.667,275.5 148.333,268.5 148,261.5C 146.969,260.3 146.135,258.966 145.5,257.5C 147.732,236.688 147.732,215.855 145.5,195C 145.959,190.828 146.459,186.662 147,182.5C 147.309,183.766 147.809,184.933 148.5,186C 147.361,191.416 147.194,196.916 148,202.5C 148.626,204.991 149.459,204.991 150.5,202.5C 151.626,204.793 152.959,206.96 154.5,209C 168.056,216.474 182.389,218.307 197.5,214.5C 198.298,214.043 198.631,213.376 198.5,212.5 Z"/>
  </g>
  <g>
    <path style="opacity:1" fill="#06518c" d="M 199.5,212.5 C 199.167,212.5 198.833,212.5 198.5,212.5C 184.711,216.065 171.378,214.898 158.5,209C 150.336,203.244 149.67,196.911 156.5,190C 173.908,188.019 189.908,192.019 204.5,202C 202.163,205.177 200.496,208.677 199.5,212.5 Z"/>
  </g>
  <g>
    <path style="opacity:1" fill="#e3f2f6" d="M 340.5,199.5 C 340.047,200.458 339.381,201.292 338.5,202C 340.761,204.772 342.261,207.938 343,211.5C 343.75,212.126 344.584,212.626 345.5,213C 356.671,215.365 367.671,214.865 378.5,211.5C 376.3,213.64 373.633,215.14 370.5,216C 361.037,217.011 351.704,216.344 342.5,214C 340.667,213.5 339.5,212.333 339,210.5C 338.781,211.938 338.281,213.271 337.5,214.5C 334.812,215.005 332.645,216.338 331,218.5C 329.644,217.62 328.144,217.286 326.5,217.5C 328.539,216.422 330.706,215.422 333,214.5C 334.756,203.763 330.256,199.763 319.5,202.5C 321.048,201.206 323.048,200.539 325.5,200.5C 331.054,199.55 334.22,201.883 335,207.5C 336.031,206.3 336.865,204.966 337.5,203.5C 336.034,200.611 337.034,199.277 340.5,199.5 Z"/>
  </g>
  <g>
    <path style="opacity:1" fill="#135287" d="M 239.5,204.5 C 266.216,204.999 292.883,204.333 319.5,202.5C 330.256,199.763 334.756,203.763 333,214.5C 330.706,215.422 328.539,216.422 326.5,217.5C 318.817,219.17 311.151,221.004 303.5,223C 282.177,227.377 260.843,227.543 239.5,223.5C 229.583,220.811 219.583,217.978 209.5,215C 208.617,210.629 209.617,206.629 212.5,203C 221.713,202.238 230.713,202.738 239.5,204.5 Z"/>
  </g>
  <g>
    <path style="opacity:1" fill="#01518e" d="M 239.5,204.5 C 243.647,205.325 247.981,205.825 252.5,206C 251.294,207.018 251.627,207.518 253.5,207.5C 278.908,207.243 304.241,205.909 329.5,203.5C 329.672,205.492 329.005,207.158 327.5,208.5C 328.833,209.167 330.167,209.833 331.5,210.5C 330.934,211.291 330.101,211.291 329,210.5C 327.596,213.317 325.763,213.817 323.5,212C 324.328,211.085 325.328,210.419 326.5,210C 324.788,208.249 322.788,207.582 320.5,208C 321.711,208.893 321.711,209.726 320.5,210.5C 314.873,209.602 309.206,209.602 303.5,210.5C 303.5,211.5 303.5,212.5 303.5,213.5C 308.442,212.36 313.442,211.86 318.5,212C 321.125,214.276 320.792,216.109 317.5,217.5C 313.078,214.868 308.744,215.035 304.5,218C 306.577,218.192 308.577,218.692 310.5,219.5C 308.049,220.519 305.549,220.519 303,219.5C 300.815,219.921 298.649,220.421 296.5,221C 296.07,221.92 295.736,222.753 295.5,223.5C 294.5,222.833 293.5,222.167 292.5,221.5C 291.3,222.531 289.966,223.365 288.5,224C 276.498,225.961 264.498,225.961 252.5,224C 253.5,223.667 254.5,223.333 255.5,223C 251.12,221.822 246.787,220.488 242.5,219C 242.833,218.667 243.167,218.333 243.5,218C 237.63,217.044 231.796,215.877 226,214.5C 224.774,214.645 223.607,214.978 222.5,215.5C 223.239,213.207 223.239,210.707 222.5,208C 220.339,207.278 218.672,207.945 217.5,210C 218.448,210.483 219.448,210.649 220.5,210.5C 220.271,212.433 219.438,214.1 218,215.5C 215.619,214.565 213.119,214.232 210.5,214.5C 210.5,212.5 210.5,210.5 210.5,208.5C 212.144,208.286 213.644,208.62 215,209.5C 214.293,207.689 213.793,205.689 213.5,203.5C 222.146,204.253 230.812,204.587 239.5,204.5 Z"/>
  </g>
  <g>
    <path style="opacity:1" fill="#fafdfc" d="M 447.5,232.5 C 447.078,236.879 446.411,241.212 445.5,245.5C 446.247,245.736 447.08,246.07 448,246.5C 449.667,244.167 451.333,241.833 453,239.5C 453.692,240.025 454.192,240.692 454.5,241.5C 453.37,242.622 452.703,243.956 452.5,245.5C 450.997,249.828 449.83,254.162 449,258.5C 460.953,263.122 471.287,270.122 480,279.5C 485.14,287.665 484.473,295.331 478,302.5C 473.622,306.935 468.788,310.768 463.5,314C 450.387,320.069 437.054,325.236 423.5,329.5C 382.213,338.868 340.546,344.535 298.5,346.5C 237.33,348.983 176.997,343.15 117.5,329C 100.688,324.425 85.0218,317.425 70.5,308C 55.3358,294.611 56.0024,281.944 72.5,270C 79.3009,265.516 86.4676,261.682 94,258.5C 93.1701,254.162 92.0035,249.828 90.5,245.5C 89.748,243.9 88.748,242.4 87.5,241C 88.5634,239.812 89.8967,239.312 91.5,239.5C 91.4832,242.991 92.9832,245.658 96,247.5C 96.3333,247.167 96.6667,246.833 97,246.5C 97.4922,247.549 97.3256,248.549 96.5,249.5C 97.3403,252.464 98.3403,252.797 99.5,250.5C 98.352,246.911 97.6853,243.244 97.5,239.5C 100.449,249.165 104.116,258.665 108.5,268C 106.5,269.333 104.5,270.667 102.5,272C 97.1617,275.509 95.3284,280.342 97,286.5C 101.081,291.964 106.248,296.131 112.5,299C 135.411,307.691 159.077,313.191 183.5,315.5C 188.537,317.402 193.87,318.568 199.5,319C 207.491,319.769 215.491,320.435 223.5,321C 225.269,322.314 227.269,323.147 229.5,323.5C 256.81,322.684 284.143,322.184 311.5,322C 310.833,321.667 310.167,321.333 309.5,321C 311.708,320.809 313.708,320.309 315.5,319.5C 340.015,318.227 364.348,315.394 388.5,311C 405.579,307.863 421.912,302.529 437.5,295C 445.181,290.819 447.681,284.652 445,276.5C 441.958,273.067 438.458,270.234 434.5,268C 439.755,256.392 444.088,244.559 447.5,232.5 Z"/>
  </g>
  <g>
    <path style="opacity:1" fill="#e0f7fd" d="M 310.5,261.5 C 309.527,261.013 308.527,260.513 307.5,260C 283.5,259.333 259.5,259.333 235.5,260C 233.934,260.608 232.6,261.442 231.5,262.5C 230.167,263.167 228.833,263.833 227.5,264.5C 227.389,263.883 227.056,263.383 226.5,263C 228.167,262 229.833,261 231.5,260C 230.167,259.667 228.833,259.333 227.5,259C 229.219,257.943 231.053,257.11 233,256.5C 258.275,258.32 283.775,259.153 309.5,259C 310.252,259.671 310.586,260.504 310.5,261.5 Z"/>
  </g>
  <g>
    <path style="opacity:1" fill="#235880" d="M 310.5,261.5 C 311.5,261.833 312.167,262.5 312.5,263.5C 310.076,262.97 307.743,262.136 305.5,261C 282.5,260.333 259.5,260.333 236.5,261C 234.975,262.009 233.308,262.509 231.5,262.5C 232.6,261.442 233.934,260.608 235.5,260C 259.5,259.333 283.5,259.333 307.5,260C 308.527,260.513 309.527,261.013 310.5,261.5 Z"/>
  </g>
  <g>
    <path style="opacity:1" fill="#4985c3" d="M 452.5,245.5 C 470.925,251.109 487.592,259.943 502.5,272C 506.866,276.561 510.366,281.728 513,287.5C 515.67,296.461 514.337,304.795 509,312.5C 498.468,325.021 485.635,334.521 470.5,341C 459.756,345.192 448.756,348.692 437.5,351.5C 440.015,348.433 443.349,347.099 447.5,347.5C 448.807,343.546 451.474,342.546 455.5,344.5C 456.243,343.092 457.077,341.759 458,340.5C 462.406,342 465.906,340.667 468.5,336.5C 467.726,335.289 466.893,335.289 466,336.5C 464.209,334.487 462.875,334.487 462,336.5C 456.892,335.296 451.725,335.296 446.5,336.5C 442.697,335.966 439.03,334.966 435.5,333.5C 436.333,333.167 437.167,332.833 438,332.5C 440.76,333.738 443.594,334.738 446.5,335.5C 446.833,335.167 447.167,334.833 447.5,334.5C 445.972,333.139 444.305,331.972 442.5,331C 443.966,330.365 445.3,329.531 446.5,328.5C 448.83,329.28 450.83,328.613 452.5,326.5C 451.562,325.447 450.395,324.78 449,324.5C 440.929,327.945 432.429,329.612 423.5,329.5C 437.054,325.236 450.387,320.069 463.5,314C 468.788,310.768 473.622,306.935 478,302.5C 484.473,295.331 485.14,287.665 480,279.5C 471.287,270.122 460.953,263.122 449,258.5C 449.83,254.162 450.997,249.828 452.5,245.5 Z"/>
  </g>
  <g>
    <path style="opacity:1" fill="#9dbdde" d="M 31.5,287.5 C 30.7255,292.797 30.3921,298.13 30.5,303.5C 29.3516,299.019 29.1849,294.352 30,289.5C 30.2784,288.584 30.7784,287.918 31.5,287.5 Z"/>
  </g>
  <g>
    <path style="opacity:1" fill="#e3f4fa" d="M 183.5,315.5 C 227.371,320.485 271.371,321.819 315.5,319.5C 313.708,320.309 311.708,320.809 309.5,321C 310.167,321.333 310.833,321.667 311.5,322C 284.143,322.184 256.81,322.684 229.5,323.5C 227.269,323.147 225.269,322.314 223.5,321C 215.491,320.435 207.491,319.769 199.5,319C 193.87,318.568 188.537,317.402 183.5,315.5 Z"/>
  </g>
  <g>
    <path style="opacity:1" fill="#4785c4" d="M 90.5,245.5 C 92.0035,249.828 93.1701,254.162 94,258.5C 86.4676,261.682 79.3009,265.516 72.5,270C 56.0024,281.944 55.3358,294.611 70.5,308C 85.0218,317.425 100.688,324.425 117.5,329C 176.997,343.15 237.33,348.983 298.5,346.5C 318.94,346.611 339.273,345.278 359.5,342.5C 369.893,345.225 380.226,345.059 390.5,342C 388.285,340.956 385.952,340.29 383.5,340C 395.679,336.802 408.012,334.135 420.5,332C 421.571,331.148 422.571,330.315 423.5,329.5C 432.429,329.612 440.929,327.945 449,324.5C 450.395,324.78 451.562,325.447 452.5,326.5C 450.83,328.613 448.83,329.28 446.5,328.5C 445.3,329.531 443.966,330.365 442.5,331C 444.305,331.972 445.972,333.139 447.5,334.5C 447.167,334.833 446.833,335.167 446.5,335.5C 443.594,334.738 440.76,333.738 438,332.5C 437.167,332.833 436.333,333.167 435.5,333.5C 439.03,334.966 442.697,335.966 446.5,336.5C 451.725,335.296 456.892,335.296 462,336.5C 462.875,334.487 464.209,334.487 466,336.5C 466.893,335.289 467.726,335.289 468.5,336.5C 465.906,340.667 462.406,342 458,340.5C 457.077,341.759 456.243,343.092 455.5,344.5C 451.474,342.546 448.807,343.546 447.5,347.5C 443.349,347.099 440.015,348.433 437.5,351.5C 418.417,358.018 398.75,362.518 378.5,365C 376.497,365.335 374.83,366.168 373.5,367.5C 372.726,366.853 371.726,366.52 370.5,366.5C 304.159,375.819 237.825,375.819 171.5,366.5C 170.584,366.543 169.917,366.876 169.5,367.5C 150.938,363.494 132.271,359.327 113.5,355C 87.9738,348.944 64.6404,338.278 43.5,323C 37.2774,317.638 32.9441,311.138 30.5,303.5C 30.3921,298.13 30.7255,292.797 31.5,287.5C 32.1963,284.446 33.6963,281.78 36,279.5C 50.3787,262.221 68.5454,250.887 90.5,245.5 Z"/>
  </g>
  <g>
    <path style="opacity:1" fill="#5387bb" d="M 423.5,329.5 C 422.571,330.315 421.571,331.148 420.5,332C 408.012,334.135 395.679,336.802 383.5,340C 385.952,340.29 388.285,340.956 390.5,342C 380.226,345.059 369.893,345.225 359.5,342.5C 339.273,345.278 318.94,346.611 298.5,346.5C 340.546,344.535 382.213,338.868 423.5,329.5 Z"/>
  </g>
  <g>
    <path style="opacity:1" fill="#02528d" d="M 373.5,367.5 C 340.262,422.31 306.262,476.643 271.5,530.5C 237.239,476.307 203.239,421.974 169.5,367.5C 169.917,366.876 170.584,366.543 171.5,366.5C 237.825,375.819 304.159,375.819 370.5,366.5C 371.726,366.52 372.726,366.853 373.5,367.5 Z"/>
  </g>
  <g>
    <path style="opacity:1" fill="#151618" d="M 275.5,538.5 C 275.167,538.5 274.833,538.5 274.5,538.5C 274.369,537.624 274.702,536.957 275.5,536.5C 276.463,536.97 276.463,537.637 275.5,538.5 Z"/>
  </g>
</svg>
